<svg width="14" height="7" viewBox="0 0 14 7" fill="none" xmlns="http://www.w3.org/2000/svg">
<path d="M3.5 4.66667C3.17917 4.66667 2.90451 4.55243 2.67604 4.32396C2.44757 4.09549 2.33333 3.82083 2.33333 3.5C2.33333 3.17917 2.44757 2.90451 2.67604 2.67604C2.90451 2.44757 3.17917 2.33333 3.5 2.33333C3.82083 2.33333 4.09549 2.44757 4.32396 2.67604C4.55243 2.90451 4.66667 3.17917 4.66667 3.5C4.66667 3.82083 4.55243 4.09549 4.32396 4.32396C4.09549 4.55243 3.82083 4.66667 3.5 4.66667ZM3.5 7C2.52778 7 1.70139 6.65972 1.02083 5.97917C0.340278 5.29861 0 4.47222 0 3.5C0 2.52778 0.340278 1.70139 1.02083 1.02083C1.70139 0.340278 2.52778 0 3.5 0C4.15139 0 4.74201 0.160417 5.27187 0.48125C5.80174 0.802083 6.22222 1.225 6.53333 1.75H11.6667L13.4167 3.5L10.7917 6.125L9.625 5.25L8.45833 6.125L7.21875 5.25H6.53333C6.22222 5.775 5.80174 6.19792 5.27187 6.51875C4.74201 6.83958 4.15139 7 3.5 7ZM3.5 5.83333C4.04444 5.83333 4.52326 5.66806 4.93646 5.3375C5.34965 5.00694 5.62431 4.58889 5.76042 4.08333H7.58333L8.42917 4.68125L9.625 3.79167L10.6604 4.59375L11.7542 3.5L11.1708 2.91667H5.76042C5.62431 2.41111 5.34965 1.99306 4.93646 1.6625C4.52326 1.33194 4.04444 1.16667 3.5 1.16667C2.85833 1.16667 2.30903 1.39514 1.85208 1.85208C1.39514 2.30903 1.16667 2.85833 1.16667 3.5C1.16667 4.14167 1.39514 4.69097 1.85208 5.14792C2.30903 5.60486 2.85833 5.83333 3.5 5.83333Z" fill="#C3C6D0"/>
</svg>
